<svg width="22" height="22" viewBox="0 0 22 22" fill="none" xmlns="http://www.w3.org/2000/svg">
<path d="M6.41675 8.25033H8.25008" stroke="#173851" stroke-width="1.5" stroke-linecap="round" stroke-linejoin="round"/>
<path d="M6.41675 11.9163H10.0834" stroke="#173851" stroke-width="1.5" stroke-linecap="round" stroke-linejoin="round"/>
<path d="M6.41675 15.5833H14.6667" stroke="#173851" stroke-width="1.5" stroke-linecap="round" stroke-linejoin="round"/>
<path d="M15.588 10.9997C13.0571 10.9997 11.0046 8.94818 11.0046 6.41634C11.0046 3.93768 13.113 1.83026 15.5916 1.83301C18.1216 1.83484 20.1713 3.88634 20.1713 6.41634C20.1713 8.94726 18.1189 10.9997 15.588 10.9997" stroke="#173851" stroke-width="1.5" stroke-linecap="round" stroke-linejoin="round"/>
<path d="M15.5833 6.64551V8.47884" stroke="#173851" stroke-width="1.5" stroke-linecap="round" stroke-linejoin="round"/>
<path d="M15.5871 4.37974C15.5165 4.37974 15.4596 4.43658 15.4606 4.50716C15.4606 4.57774 15.5174 4.63458 15.588 4.63458C15.6586 4.63458 15.7154 4.57774 15.7154 4.50716C15.7145 4.43658 15.6576 4.37974 15.5871 4.37974" stroke="#173851" stroke-width="1.5" stroke-linecap="round" stroke-linejoin="round"/>
<path d="M17.4167 10.6193V17.4163C17.4167 18.4293 16.5963 19.2497 15.5834 19.2497H5.50008C4.48716 19.2497 3.66675 18.4293 3.66675 17.4163V6.41634C3.66675 5.40342 4.48716 4.58301 5.50008 4.58301H11.4043" stroke="#173851" stroke-width="1.5" stroke-linecap="round" stroke-linejoin="round"/>
</svg>
